<svg width="32" height="32" viewBox="0 0 32 32" fill="none" xmlns="http://www.w3.org/2000/svg">
<path d="M18.5 16H5" stroke="black" stroke-width="2" stroke-linecap="round" stroke-linejoin="round"/>
<path d="M27 16H23.5" stroke="black" stroke-width="2" stroke-linecap="round" stroke-linejoin="round"/>
<path d="M18.5 16C18.5 17.3807 19.6193 18.5 21 18.5C22.3807 18.5 23.5 17.3807 23.5 16C23.5 14.6193 22.3807 13.5 21 13.5C19.6193 13.5 18.5 14.6193 18.5 16Z" stroke="black" stroke-width="2" stroke-linecap="round" stroke-linejoin="round"/>
<path d="M8.5 25H5" stroke="black" stroke-width="2" stroke-linecap="round" stroke-linejoin="round"/>
<path d="M27 25H13.5" stroke="black" stroke-width="2" stroke-linecap="round" stroke-linejoin="round"/>
<path d="M8.5 25C8.5 26.3807 9.61929 27.5 11 27.5C12.3807 27.5 13.5 26.3807 13.5 25C13.5 23.6193 12.3807 22.5 11 22.5C9.61929 22.5 8.5 23.6193 8.5 25Z" stroke="black" stroke-width="2" stroke-linecap="round" stroke-linejoin="round"/>
<path d="M12.5 7L5 7" stroke="black" stroke-width="2" stroke-linecap="round" stroke-linejoin="round"/>
<path d="M27 7L17.5 7" stroke="black" stroke-width="2" stroke-linecap="round" stroke-linejoin="round"/>
<path d="M12.5 7C12.5 8.38071 13.6193 9.5 15 9.5C16.3807 9.5 17.5 8.38071 17.5 7C17.5 5.61929 16.3807 4.5 15 4.5C13.6193 4.5 12.5 5.61929 12.5 7Z" stroke="black" stroke-width="2" stroke-linecap="round" stroke-linejoin="round"/>
</svg>
