<svg width="24" height="24" viewBox="0 0 24 24" fill="none" xmlns="http://www.w3.org/2000/svg">
<path d="M20.9438 10.6874L5.14689 1.84673C4.88368 1.69324 4.58059 1.62194 4.27655 1.64198C3.97252 1.66203 3.68142 1.77251 3.44064 1.95923C3.19474 2.15324 3.0162 2.41979 2.93037 2.72102C2.84455 3.02226 2.85579 3.34287 2.96251 3.63735L5.59689 10.9967C5.62354 11.0701 5.6719 11.1336 5.73554 11.1788C5.79918 11.2241 5.87508 11.2488 5.95314 11.2499H12.7219C12.9165 11.2468 13.105 11.3176 13.2495 11.4481C13.3939 11.5786 13.4834 11.759 13.5 11.953C13.5064 12.0553 13.4918 12.1579 13.457 12.2544C13.4222 12.3509 13.3679 12.4392 13.2976 12.5139C13.2273 12.5886 13.1425 12.648 13.0483 12.6886C12.9541 12.7292 12.8526 12.7501 12.75 12.7499H5.95314C5.87508 12.7509 5.79918 12.7756 5.73554 12.8209C5.6719 12.8661 5.62354 12.9296 5.59689 13.003L2.96251 20.3624C2.88347 20.5891 2.85965 20.8314 2.89304 21.0691C2.92642 21.3069 3.01605 21.5333 3.15448 21.7295C3.2929 21.9256 3.47614 22.086 3.68895 22.1971C3.90177 22.3083 4.13804 22.3671 4.37814 22.3686C4.63363 22.3675 4.88486 22.303 5.10939 22.1811L20.9438 13.3124C21.1757 13.1806 21.3687 12.9898 21.5029 12.7592C21.6371 12.5286 21.7078 12.2666 21.7078 11.9999C21.7078 11.7331 21.6371 11.4711 21.5029 11.2405C21.3687 11.01 21.1757 10.8191 20.9438 10.6874V10.6874Z" fill="#FCFCFC"/>
</svg>
